<svg xmlns="http://www.w3.org/2000/svg" version="1.1" xmlns:xlink="http://www.w3.org/1999/xlink" xmlns:svgjs="http://svgjs.dev/svgjs" width="2000" height="707" viewBox="0 0 2000 707"><g transform="matrix(1,0,0,1,-1.2121212121212466,0.4270482002077074)"><svg viewBox="0 0 396 140" data-background-color="#ffffff" preserveAspectRatio="xMidYMid meet" height="707" width="2000" xmlns="http://www.w3.org/2000/svg" xmlns:xlink="http://www.w3.org/1999/xlink"><g id="tight-bounds" transform="matrix(1,0,0,1,0.2400000000000091,-0.08456400004112652)"><svg viewBox="0 0 395.52 140.16912800008225" height="140.16912800008225" width="395.52"><g><svg viewBox="0 0 613.5947644010066 217.45308219939574" height="140.16912800008225" width="395.52"><g transform="matrix(1,0,0,1,218.07476440100666,62.17427523867069)"><svg viewBox="0 0 395.52 93.10453172205436" height="93.10453172205436" width="395.52"><g id="textblocktransform"><svg viewBox="0 0 395.52 93.10453172205436" height="93.10453172205436" width="395.52" id="textblock"><g><svg viewBox="0 0 395.52 93.10453172205436" height="93.10453172205436" width="395.52"><g transform="matrix(1,0,0,1,0,0)"><svg width="395.52" viewBox="3.7 -36.25 198.59 46.75" height="93.10453172205436" data-palette-color="#5e1914"><path d="M3.7 0L3.7-34.4 33.45-34.4 33.45-26.15 14.75-26.15 14.75-21.4 30.75-21.4 30.75-13.5 14.75-13.5 14.75-8.25 33.8-8.25 33.8 0 3.7 0ZM56.55 0L46.1 0 36.1-26.4 46.8-26.4 51.65-9.95 52-9.95 56.85-26.4 66.65-26.4 56.55 0ZM82-27Q89.25-27 93.07-23.6 96.9-20.2 96.9-13.2L96.9-13.2 96.9-11.5 77.1-11.5Q77.1-8.65 78.37-7.2 79.65-5.75 82.4-5.75L82.4-5.75Q84.9-5.75 86.07-6.8 87.25-7.85 87.25-9.6L87.25-9.6 96.9-9.6Q96.9-4.8 93.25-2.1 89.6 0.6 82.6 0.6L82.6 0.6Q75.25 0.6 71.2-2.83 67.15-6.25 67.15-13.2L67.15-13.2Q67.15-20 71.1-23.5 75.05-27 82-27L82-27ZM82.4-20.65Q77.7-20.65 77.15-16.2L77.15-16.2 86.85-16.2Q86.85-18.25 85.67-19.45 84.5-20.65 82.4-20.65L82.4-20.65ZM119.89-27Q124.49-27 126.79-24.45 129.09-21.9 129.09-17.1L129.09-17.1 129.09 0 119.14 0 119.14-15.9Q119.14-17.6 118.27-18.63 117.39-19.65 115.79-19.65L115.79-19.65Q113.94-19.65 112.79-18.45 111.64-17.25 111.64-15.5L111.64-15.5 111.64 0 101.69 0 101.69-26.4 109.84-26.4 110.49-22.4Q112.04-24.5 114.57-25.75 117.09-27 119.89-27L119.89-27ZM147.04-26.4L152.64-26.4 152.64-19.65 147.04-19.65 147.04-9.6Q147.04-7.8 147.64-6.98 148.24-6.15 149.84-6.15L149.84-6.15 152.64-6.15 152.64-0.3Q151.44 0.1 149.54 0.35 147.64 0.6 146.24 0.6L146.24 0.6Q141.84 0.6 139.47-1 137.09-2.6 137.09-6.45L137.09-6.45 137.09-19.65 133.39-19.65 133.39-26.4 137.49-26.4 139.64-34.4 147.04-34.4 147.04-26.4ZM167.54 0L157.59 0 157.59-36.25 167.54-36.25 167.54 0ZM192.89-0.8Q190.84 4.75 187.86 7.63 184.89 10.5 179.54 10.5L179.54 10.5Q176.29 10.5 173.79 9.6L173.79 9.6 173.79 3.65 177.79 3.65Q181.54 3.65 182.24 0L182.24 0 171.74-26.4 182.44-26.4 187.49-8.85 187.84-8.85 192.49-26.4 202.29-26.4 192.89-0.8Z" opacity="1" transform="matrix(1,0,0,1,0,0)" fill="#5e1914" class="wordmark-text-0" data-fill-palette-color="primary" id="text-0"></path></svg></g></svg></g></svg></g></svg></g><g><svg viewBox="0 0 196.09501897019095 217.45308219939574" height="217.45308219939574" width="196.09501897019095"><g><svg xmlns="http://www.w3.org/2000/svg" xmlns:xlink="http://www.w3.org/1999/xlink" version="1.1" x="8" y="0" viewBox="18.75 14.341999999999999 42.5 51.316" enable-background="new 0 0 80 80" xml:space="preserve" height="217.45308219939574" width="180.09501897019095" class="icon-icon-0" data-fill-palette-color="accent" id="icon-0"><g fill="#ed2647" data-fill-palette-color="accent"><path d="M53.06 18.592v-2.25c0-1.104-0.896-2-2-2s-2 0.896-2 2v1.816H31.372v-1.816c0-1.104-0.896-2-2-2s-2 0.896-2 2v2.139c-4.938 1.188-8.622 5.631-8.622 10.928v2.261h42.5v-2.261C61.25 24.267 57.778 19.93 53.06 18.592zM40 28.675c-1.653 0-3-1.346-3-3s1.347-3 3-3 3 1.346 3 3S41.653 28.675 40 28.675z" fill="#ed2647" data-fill-palette-color="accent"></path><path d="M18.75 54.408c0 6.203 5.047 11.25 11.25 11.25h20c6.203 0 11.25-5.047 11.25-11.25V35.67h-42.5V54.408zM37.854 60.088l-0.579 1.466c-0.144 0.364-0.493 0.587-0.862 0.587-0.113 0-0.229-0.021-0.34-0.064-0.477-0.188-0.71-0.727-0.522-1.203l0.578-1.466c0.188-0.476 0.726-0.708 1.202-0.522C37.808 59.073 38.041 59.611 37.854 60.088zM52.171 55.119C52.024 55.48 51.678 55.7 51.31 55.7c-0.114 0-0.23-0.021-0.344-0.065l-1.464-0.587c-0.476-0.19-0.706-0.73-0.516-1.206 0.19-0.475 0.729-0.705 1.205-0.516l1.464 0.587C52.13 54.104 52.36 54.643 52.171 55.119zM49.397 45.76l1.449-0.617c0.472-0.201 1.015 0.018 1.215 0.49 0.201 0.471-0.019 1.015-0.488 1.215l-1.451 0.617c-0.117 0.051-0.24 0.074-0.362 0.074-0.36 0-0.702-0.211-0.853-0.564C48.706 46.505 48.927 45.96 49.397 45.76zM45.56 61.918c-0.12 0.051-0.245 0.076-0.368 0.076-0.358 0-0.7-0.209-0.851-0.56l-0.625-1.448c-0.203-0.47 0.014-1.016 0.482-1.219 0.471-0.203 1.016 0.014 1.219 0.484l0.625 1.447C46.245 61.17 46.028 61.715 45.56 61.918zM43.497 40.955l0.592-1.459c0.191-0.476 0.73-0.705 1.205-0.512 0.475 0.191 0.704 0.732 0.512 1.206l-0.591 1.46c-0.146 0.361-0.493 0.579-0.858 0.579-0.116 0-0.234-0.021-0.348-0.067C43.534 41.97 43.306 41.43 43.497 40.955zM39.618 45.62c0.559-0.829 1.613-1.229 2.607-0.9S43.828 46 43.781 47l0.006-0.002 0.137 5.439-7.617-2.596 3.308-4.225L39.618 45.62zM35.812 39.043c0.471-0.199 1.016 0.024 1.213 0.496l0.608 1.453c0.198 0.472-0.023 1.015-0.495 1.212-0.117 0.05-0.24 0.072-0.359 0.072-0.361 0-0.705-0.214-0.854-0.568l-0.609-1.452C35.117 39.783 35.339 39.24 35.812 39.043zM34.797 51.986c0.072-0.217 0.183-0.408 0.308-0.586l8.846 3.014c-0.01 0.189-0.035 0.381-0.098 0.57-0.396 1.197-1.691 1.848-2.889 1.453 0 0 0 0-0.002 0l-4.738-1.57v-0.003C35.044 54.459 34.403 53.175 34.797 51.986zM31.902 55.343l-1.444 0.632c-0.12 0.053-0.247 0.078-0.37 0.078-0.357 0-0.698-0.207-0.85-0.557-0.206-0.469 0.009-1.015 0.478-1.219l1.445-0.633c0.47-0.207 1.015 0.011 1.219 0.479C32.586 54.592 32.371 55.139 31.902 55.343zM29.129 45.774c0.195-0.473 0.74-0.696 1.21-0.504l1.455 0.6c0.473 0.196 0.699 0.737 0.504 1.21-0.147 0.357-0.493 0.574-0.857 0.574-0.117 0-0.237-0.023-0.353-0.07l-1.455-0.6C29.159 46.789 28.935 46.248 29.129 45.774z" fill="#ed2647" data-fill-palette-color="accent"></path></g></svg></g></svg></g></svg></g><defs></defs></svg><rect width="395.52" height="140.16912800008225" fill="none" stroke="none" visibility="hidden"></rect></g></svg></g></svg>