<svg xmlns="http://www.w3.org/2000/svg" version="1.1" xmlns:xlink="http://www.w3.org/1999/xlink" xmlns:svgjs="http://svgjs.dev/svgjs" width="2000" height="641" viewBox="0 0 2000 641"><g transform="matrix(1,0,0,1,-1.2121212121210192,0.8781145342160812)"><svg viewBox="0 0 396 127" data-background-color="#ffffff" preserveAspectRatio="xMidYMid meet" height="641" width="2000" xmlns="http://www.w3.org/2000/svg" xmlns:xlink="http://www.w3.org/1999/xlink"><g id="tight-bounds" transform="matrix(1,0,0,1,0.23999999999995225,-0.17397901067931798)"><svg viewBox="0 0 395.52 127.34795802135861" height="127.34795802135861" width="395.52"><g><svg viewBox="0 0 569.6415379497112 183.41091894731485" height="127.34795802135861" width="395.52"><g transform="matrix(1,0,0,1,174.12153794971124,44.64371348231103)"><svg viewBox="0 0 395.52 94.1234919826928" height="94.1234919826928" width="395.52"><g id="textblocktransform"><svg viewBox="0 0 395.52 94.1234919826928" height="94.1234919826928" width="395.52" id="textblock"><g><svg viewBox="0 0 395.52 94.1234919826928" height="94.1234919826928" width="395.52"><g transform="matrix(1,0,0,1,0,0)"><svg width="395.52" viewBox="1.8 -36.25 196.44 46.75" height="94.1234919826928" data-palette-color="#5e1914"><path d="M16.65-27Q23.9-27 27.73-23.6 31.55-20.2 31.55-13.2L31.55-13.2 31.55-11.5 11.75-11.5Q11.75-8.65 13.03-7.2 14.3-5.75 17.05-5.75L17.05-5.75Q19.55-5.75 20.73-6.8 21.9-7.85 21.9-9.6L21.9-9.6 31.55-9.6Q31.55-4.8 27.9-2.1 24.25 0.6 17.25 0.6L17.25 0.6Q9.9 0.6 5.85-2.83 1.8-6.25 1.8-13.2L1.8-13.2Q1.8-20 5.75-23.5 9.7-27 16.65-27L16.65-27ZM17.05-20.65Q12.35-20.65 11.8-16.2L11.8-16.2 21.5-16.2Q21.5-18.25 20.33-19.45 19.15-20.65 17.05-20.65L17.05-20.65ZM52.5 0L42.05 0 32.05-26.4 42.75-26.4 47.6-9.95 47.95-9.95 52.8-26.4 62.6-26.4 52.5 0ZM77.95-27Q85.2-27 89.02-23.6 92.85-20.2 92.85-13.2L92.85-13.2 92.85-11.5 73.05-11.5Q73.05-8.65 74.32-7.2 75.6-5.75 78.35-5.75L78.35-5.75Q80.85-5.75 82.02-6.8 83.2-7.85 83.2-9.6L83.2-9.6 92.85-9.6Q92.85-4.8 89.2-2.1 85.55 0.6 78.55 0.6L78.55 0.6Q71.2 0.6 67.15-2.83 63.1-6.25 63.1-13.2L63.1-13.2Q63.1-20 67.05-23.5 71-27 77.95-27L77.95-27ZM78.35-20.65Q73.65-20.65 73.1-16.2L73.1-16.2 82.8-16.2Q82.8-18.25 81.62-19.45 80.45-20.65 78.35-20.65L78.35-20.65ZM115.84-27Q120.44-27 122.74-24.45 125.04-21.9 125.04-17.1L125.04-17.1 125.04 0 115.09 0 115.09-15.9Q115.09-17.6 114.22-18.63 113.34-19.65 111.74-19.65L111.74-19.65Q109.89-19.65 108.74-18.45 107.59-17.25 107.59-15.5L107.59-15.5 107.59 0 97.64 0 97.64-26.4 105.79-26.4 106.44-22.4Q107.99-24.5 110.52-25.75 113.04-27 115.84-27L115.84-27ZM142.99-26.4L148.59-26.4 148.59-19.65 142.99-19.65 142.99-9.6Q142.99-7.8 143.59-6.98 144.19-6.15 145.79-6.15L145.79-6.15 148.59-6.15 148.59-0.3Q147.39 0.1 145.49 0.35 143.59 0.6 142.19 0.6L142.19 0.6Q137.79 0.6 135.42-1 133.04-2.6 133.04-6.45L133.04-6.45 133.04-19.65 129.34-19.65 129.34-26.4 133.44-26.4 135.59-34.4 142.99-34.4 142.99-26.4ZM163.49 0L153.54 0 153.54-36.25 163.49-36.25 163.49 0ZM188.84-0.8Q186.78 4.75 183.81 7.63 180.84 10.5 175.49 10.5L175.49 10.5Q172.24 10.5 169.74 9.6L169.74 9.6 169.74 3.65 173.74 3.65Q177.49 3.65 178.19 0L178.19 0 167.69-26.4 178.38-26.4 183.44-8.85 183.78-8.85 188.44-26.4 198.24-26.4 188.84-0.8Z" opacity="1" transform="matrix(1,0,0,1,0,0)" fill="#5e1914" class="wordmark-text-0" data-fill-palette-color="primary" id="text-0"></path></svg></g></svg></g></svg></g></svg></g><g><svg viewBox="0 0 151.90124045640505 183.41091894731485" height="183.41091894731485" width="151.90124045640505"><g><svg xmlns="http://www.w3.org/2000/svg" xmlns:xlink="http://www.w3.org/1999/xlink" version="1.1" x="0" y="0" viewBox="18.75 14.341999999999999 42.5 51.316" enable-background="new 0 0 80 80" xml:space="preserve" height="183.41091894731485" width="151.90124045640505" class="icon-icon-0" data-fill-palette-color="accent" id="icon-0"><g fill="#ed2647" data-fill-palette-color="accent"><path d="M53.06 18.592v-2.25c0-1.104-0.896-2-2-2s-2 0.896-2 2v1.816H31.372v-1.816c0-1.104-0.896-2-2-2s-2 0.896-2 2v2.139c-4.938 1.188-8.622 5.631-8.622 10.928v2.261h42.5v-2.261C61.25 24.267 57.778 19.93 53.06 18.592zM40 28.675c-1.653 0-3-1.346-3-3s1.347-3 3-3 3 1.346 3 3S41.653 28.675 40 28.675z" fill="#ed2647" data-fill-palette-color="accent"></path><path d="M18.75 54.408c0 6.203 5.047 11.25 11.25 11.25h20c6.203 0 11.25-5.047 11.25-11.25V35.67h-42.5V54.408zM37.854 60.088l-0.579 1.466c-0.144 0.364-0.493 0.587-0.862 0.587-0.113 0-0.229-0.021-0.34-0.064-0.477-0.188-0.71-0.727-0.522-1.203l0.578-1.466c0.188-0.476 0.726-0.708 1.202-0.522C37.808 59.073 38.041 59.611 37.854 60.088zM52.171 55.119C52.024 55.48 51.678 55.7 51.31 55.7c-0.114 0-0.23-0.021-0.344-0.065l-1.464-0.587c-0.476-0.19-0.706-0.73-0.516-1.206 0.19-0.475 0.729-0.705 1.205-0.516l1.464 0.587C52.13 54.104 52.36 54.643 52.171 55.119zM49.397 45.76l1.449-0.617c0.472-0.201 1.015 0.018 1.215 0.49 0.201 0.471-0.019 1.015-0.488 1.215l-1.451 0.617c-0.117 0.051-0.24 0.074-0.362 0.074-0.36 0-0.702-0.211-0.853-0.564C48.706 46.505 48.927 45.96 49.397 45.76zM45.56 61.918c-0.12 0.051-0.245 0.076-0.368 0.076-0.358 0-0.7-0.209-0.851-0.56l-0.625-1.448c-0.203-0.47 0.014-1.016 0.482-1.219 0.471-0.203 1.016 0.014 1.219 0.484l0.625 1.447C46.245 61.17 46.028 61.715 45.56 61.918zM43.497 40.955l0.592-1.459c0.191-0.476 0.73-0.705 1.205-0.512 0.475 0.191 0.704 0.732 0.512 1.206l-0.591 1.46c-0.146 0.361-0.493 0.579-0.858 0.579-0.116 0-0.234-0.021-0.348-0.067C43.534 41.97 43.306 41.43 43.497 40.955zM39.618 45.62c0.559-0.829 1.613-1.229 2.607-0.9S43.828 46 43.781 47l0.006-0.002 0.137 5.439-7.617-2.596 3.308-4.225L39.618 45.62zM35.812 39.043c0.471-0.199 1.016 0.024 1.213 0.496l0.608 1.453c0.198 0.472-0.023 1.015-0.495 1.212-0.117 0.05-0.24 0.072-0.359 0.072-0.361 0-0.705-0.214-0.854-0.568l-0.609-1.452C35.117 39.783 35.339 39.24 35.812 39.043zM34.797 51.986c0.072-0.217 0.183-0.408 0.308-0.586l8.846 3.014c-0.01 0.189-0.035 0.381-0.098 0.57-0.396 1.197-1.691 1.848-2.889 1.453 0 0 0 0-0.002 0l-4.738-1.57v-0.003C35.044 54.459 34.403 53.175 34.797 51.986zM31.902 55.343l-1.444 0.632c-0.12 0.053-0.247 0.078-0.37 0.078-0.357 0-0.698-0.207-0.85-0.557-0.206-0.469 0.009-1.015 0.478-1.219l1.445-0.633c0.47-0.207 1.015 0.011 1.219 0.479C32.586 54.592 32.371 55.139 31.902 55.343zM29.129 45.774c0.195-0.473 0.74-0.696 1.21-0.504l1.455 0.6c0.473 0.196 0.699 0.737 0.504 1.21-0.147 0.357-0.493 0.574-0.857 0.574-0.117 0-0.237-0.023-0.353-0.07l-1.455-0.6C29.159 46.789 28.935 46.248 29.129 45.774z" fill="#ed2647" data-fill-palette-color="accent"></path></g></svg></g></svg></g></svg></g><defs></defs></svg><rect width="395.52" height="127.34795802135861" fill="none" stroke="none" visibility="hidden"></rect></g></svg></g></svg>